<?xml version="1.0" encoding="UTF-8" standalone="no"?>
<!-- Generator: Adobe Illustrator 15.0.0, SVG Export Plug-In . SVG Version: 6.00 Build 0)  -->

<svg
   xmlns:dc="http://purl.org/dc/elements/1.1/"
   xmlns:cc="http://creativecommons.org/ns#"
   xmlns:rdf="http://www.w3.org/1999/02/22-rdf-syntax-ns#"
   xmlns:svg="http://www.w3.org/2000/svg"
   xmlns="http://www.w3.org/2000/svg"
   xmlns:sodipodi="http://sodipodi.sourceforge.net/DTD/sodipodi-0.dtd"
   xmlns:inkscape="http://www.inkscape.org/namespaces/inkscape"
   version="1.1"
   id="Capa_1"
   x="0px"
   y="0px"
   width="64"
   height="64"
   viewBox="0 0 64 64"
   xml:space="preserve"
   sodipodi:docname="App.svg"
   inkscape:export-filename="App.png"
   inkscape:export-xdpi="96"
   inkscape:export-ydpi="96"
   inkscape:version="0.92.4 (5da689c313, 2019-01-14)"><metadata
   id="metadata4536"><rdf:RDF><cc:Work
       rdf:about=""><dc:format>image/svg+xml</dc:format><dc:type
         rdf:resource="http://purl.org/dc/dcmitype/StillImage" /><dc:title></dc:title></cc:Work></rdf:RDF></metadata><defs
   id="defs4534" /><sodipodi:namedview
   pagecolor="#ffffff"
   bordercolor="#666666"
   borderopacity="1"
   objecttolerance="10"
   gridtolerance="10"
   guidetolerance="10"
   inkscape:pageopacity="0"
   inkscape:pageshadow="2"
   inkscape:window-width="1841"
   inkscape:window-height="1051"
   id="namedview4532"
   showgrid="false"
   inkscape:pagecheckerboard="true"
   inkscape:zoom="21.375"
   inkscape:cx="32"
   inkscape:cy="32"
   inkscape:window-x="-9"
   inkscape:window-y="-9"
   inkscape:window-maximized="1"
   inkscape:current-layer="Capa_1" />



<g
   id="g4623"><rect
     style="opacity:1;fill:#ffffff;fill-opacity:1;stroke:none;stroke-width:3.77952743;stroke-linecap:square;stroke-linejoin:miter;stroke-miterlimit:4;stroke-dasharray:none;stroke-dashoffset:0;stroke-opacity:1"
     id="rect4613"
     width="3.5"
     height="4.5"
     x="-5.2564726e-08"
     y="43.5" /><path
     sodipodi:nodetypes="ccccccc"
     class="st1"
     d="m 0.24999975,16 v 26.181817 c 0,2.909093 0,0 0,2.909093 V 48 H 61.25 V 16 Z"
     style="opacity:1;fill:#ffffff;fill-opacity:1;stroke:none;stroke-width:1"
     id="path4553"
     inkscape:connector-curvature="0" /><rect
     style="fill:#7dd47f;stroke-width:1"
     height="20.727272"
     width="57.263157"
     class="stshockcolor"
     y="30.272728"
     x="6.7368426"
     id="268254839_shock_x5F_color_grid" /><path
     inkscape:connector-curvature="0"
     id="path4529"
     style="opacity:1;fill:#231f20;stroke:none;stroke-width:1"
     d="m 50.526316,19.909092 -3.368422,3.454545 v 5.181818 l 3.368422,-3.454545 v 18.999999 h 3.36842 V 19.909092 Z m -11.789474,0 c -2.778947,0 -5.052632,2.331818 -5.052632,5.181818 v 13.818181 c 0,2.85 2.273685,5.181818 5.052632,5.181818 2.778947,0 5.052631,-2.331818 5.052631,-5.181818 V 25.09091 c 0,-2.85 -2.273684,-5.181818 -5.052631,-5.181818 z m 1.684211,18.999999 c 0,0.95 -0.757895,1.727273 -1.684211,1.727273 -0.926316,0 -1.684211,-0.777273 -1.684211,-1.727273 V 25.09091 c 0,-0.95 0.757895,-1.727273 1.684211,-1.727273 0.926316,0 1.684211,0.777273 1.684211,1.727273 z M 25.263158,19.909092 c -2.778947,0 -5.052632,2.331818 -5.052632,5.181818 v 13.818181 c 0,2.85 2.273685,5.181818 5.052632,5.181818 2.778947,0 5.052631,-2.331818 5.052631,-5.181818 V 25.09091 c 0,-2.85 -2.273684,-5.181818 -5.052631,-5.181818 z m 1.68421,18.999999 c 0,0.95 -0.757894,1.727273 -1.68421,1.727273 -0.926316,0 -1.684211,-0.777273 -1.684211,-1.727273 V 25.09091 c 0,-0.95 0.757895,-1.727273 1.684211,-1.727273 0.926316,0 1.68421,0.777273 1.68421,1.727273 z M 13.473685,19.909092 11.789474,25.09091 10.105264,19.909092 H 6.7368425 l 3.3684215,10.363636 v 13.818181 h 3.368421 V 30.272728 l 3.36842,-10.363636 z m 37.052631,0 -3.368422,3.454545 v 5.181818 l 3.368422,-3.454545 v 18.999999 h 3.36842 V 19.909092 Z m -11.789474,0 c -2.778947,0 -5.052632,2.331818 -5.052632,5.181818 v 13.818181 c 0,2.85 2.273685,5.181818 5.052632,5.181818 2.778947,0 5.052631,-2.331818 5.052631,-5.181818 V 25.09091 c 0,-2.85 -2.273684,-5.181818 -5.052631,-5.181818 z m 1.684211,18.999999 c 0,0.95 -0.757895,1.727273 -1.684211,1.727273 -0.926316,0 -1.684211,-0.777273 -1.684211,-1.727273 V 25.09091 c 0,-0.95 0.757895,-1.727273 1.684211,-1.727273 0.926316,0 1.684211,0.777273 1.684211,1.727273 z M 25.263158,19.909092 c -2.778947,0 -5.052632,2.331818 -5.052632,5.181818 v 13.818181 c 0,2.85 2.273685,5.181818 5.052632,5.181818 2.778947,0 5.052631,-2.331818 5.052631,-5.181818 V 25.09091 c 0,-2.85 -2.273684,-5.181818 -5.052631,-5.181818 z m 1.68421,18.999999 c 0,0.95 -0.757894,1.727273 -1.68421,1.727273 -0.926316,0 -1.684211,-0.777273 -1.684211,-1.727273 V 25.09091 c 0,-0.95 0.757895,-1.727273 1.684211,-1.727273 0.926316,0 1.68421,0.777273 1.68421,1.727273 z M 13.473685,19.909092 11.789474,25.09091 10.105264,19.909092 H 6.7368425 l 3.3684215,10.363636 v 13.818181 h 3.368421 V 30.272728 l 3.36842,-10.363636 z M 5e-7,13.000001 v 31.090908 h 3.368421 V 16.454546 H 60.631579 V 47.545455 H 5e-7 V 51 H 64 V 13.000001 Z m 50.5263155,6.909091 -3.368422,3.454545 v 5.181818 l 3.368422,-3.454545 v 18.999999 h 3.36842 V 19.909092 Z m -11.789474,0 c -2.778947,0 -5.052632,2.331818 -5.052632,5.181818 v 13.818181 c 0,2.85 2.273685,5.181818 5.052632,5.181818 2.778947,0 5.052631,-2.331818 5.052631,-5.181818 V 25.09091 c 0,-2.85 -2.273684,-5.181818 -5.052631,-5.181818 z m 1.684211,18.999999 c 0,0.95 -0.757895,1.727273 -1.684211,1.727273 -0.926316,0 -1.684211,-0.777273 -1.684211,-1.727273 V 25.09091 c 0,-0.95 0.757895,-1.727273 1.684211,-1.727273 0.926316,0 1.684211,0.777273 1.684211,1.727273 z M 25.263158,19.909092 c -2.778947,0 -5.052632,2.331818 -5.052632,5.181818 v 13.818181 c 0,2.85 2.273685,5.181818 5.052632,5.181818 2.778947,0 5.052631,-2.331818 5.052631,-5.181818 V 25.09091 c 0,-2.85 -2.273684,-5.181818 -5.052631,-5.181818 z m 1.68421,18.999999 c 0,0.95 -0.757894,1.727273 -1.68421,1.727273 -0.926316,0 -1.684211,-0.777273 -1.684211,-1.727273 V 25.09091 c 0,-0.95 0.757895,-1.727273 1.684211,-1.727273 0.926316,0 1.68421,0.777273 1.68421,1.727273 z M 13.473685,19.909092 11.789474,25.09091 10.105264,19.909092 H 6.7368425 l 3.3684215,10.363636 v 13.818181 h 3.368421 V 30.272728 l 3.36842,-10.363636 z"
     class="st1" /><rect
     y="13"
     x="0"
     height="3.5"
     width="64"
     id="rect4579"
     style="opacity:1;fill:#000000;fill-opacity:1;stroke:none;stroke-width:3.77952766;stroke-linecap:square;stroke-linejoin:miter;stroke-miterlimit:4;stroke-dasharray:none;stroke-dashoffset:0;stroke-opacity:1" /><rect
     style="opacity:1;fill:#000000;fill-opacity:1;stroke:none;stroke-width:3.77952766;stroke-linecap:square;stroke-linejoin:miter;stroke-miterlimit:4;stroke-dasharray:none;stroke-dashoffset:0;stroke-opacity:1"
     id="rect4589"
     width="64"
     height="3.5"
     x="0"
     y="47.5" /><rect
     style="opacity:1;fill:#000000;fill-opacity:1;stroke:none;stroke-width:3.77952766;stroke-linecap:square;stroke-linejoin:miter;stroke-miterlimit:4;stroke-dasharray:none;stroke-dashoffset:0;stroke-opacity:1"
     id="rect4591"
     width="3.5"
     height="38"
     x="60.5"
     y="13" /><rect
     y="13"
     x="0"
     height="31.25"
     width="3.5"
     id="rect4593"
     style="opacity:1;fill:#000000;fill-opacity:1;stroke:none;stroke-width:3.77952766;stroke-linecap:square;stroke-linejoin:miter;stroke-miterlimit:4;stroke-dasharray:none;stroke-dashoffset:0;stroke-opacity:1" /></g></svg>